<svg className="bullIcon" width="15vw" viewBox="0 0 193.21 119.59">
  <path
    d="M.196 11.247c7.008 12.836 10.708 11.6 22.111 8.423 2.825-4.177 4.418-4.046 9.072-5.917-9.767-2-10.839-9.94-8.628-13.46 6.064 15.746 17.473 4.011 22.7 12.22C61.06 9.83 67.732 8.776 79.57 11.823c6.251 1.547 7.732 6.812 22.515 12.172 25.002 9.065 35.325 8.837 41.395 8.253 4.452-.428 6.702-.869 8.16 1.69 14.569 1.564 9.194-4.767 29.469-.651 4.029.818 6.951 2.502 7.427 5.754.333 2.278-.788 5.33-2.464 8.885-3.13 6.625-2.04 9.608 1.695 11.6 2.68 1.429 7.847 4.49 3.852 11.139-2.101-1.743-3.68-3.59-4.796-5.53-.078-.519.133-2.215.133-2.215l-.58-.513-.02-1.036c-10.22-7.908-.884-16.83-1.715-21.4-1.232-3.884-14.801-3.822-24.78-.631 4.843 3.584 7.56 4.023 9.232 6.13.595.667.202 1.699.468 3.068 1.968 10.14 6.4 15.955 5.831 23.637 1.531 1.176 2.761 2.219 3.6 10.452 2.497 1.956 4.256-2.596 5.916 9.614.723 11.356 4.166 12.123 6.467 20.472-1.409 2.23-6.506 3.355-9.976.683 1.356-5.052 2.35-7.822 1.686-10.702-.815-3.54-4.497-5.641-7.706-8.294-.352-.29-2.692-2-3.374-3.444-1.017-2.156-5.777-2.347-9.67-7.965-.28-.406-1.045-1.659-1.438-2.699-1.59-5.261-7.32-7.01-13.953-8.363-2.087-.427 1.052.674-8.874 9.86-.636 5.67 2.474 8.79-4.62 15.126-.28.25-2.285 1.901-2.603 2.155-4.98 3.928-4.585 7.56-9.12 13.78-6.37.189-8.497-.682-9.664-2.17 2.31-5.271 10.439-7.038 12.824-13.053 2.12-5.35 2.652-9.725 1.35-15.837-12.369 3.569-26.802-6.418-38.062 1.577-4.1 3.043-4.372 11.265-11.384 16.955-1.138 1.044-2.599 2.334-2.829 5.057-.139 3.889-.458 5.853-2.132 7.115-.178.134-1.248 2.267-1.388 2.463-.939 2.858.32.56-1.706 2.612-3.672 2.511-8.265 2.497-10.745.021.992-2.312 2.694-4.153 5.895-5.856 2.651-6.31 6.675-7.618 7.343-13.964-.02-8.541 4.868-13.449-1.193-11.026-1.386-.15-2.215.363-3.12.634-.556.167-2.37.851-4.214-1.957-1.221-1.859-2.871-3.718-3.46-4.37-2.065-1.877-5.156-1.865-11.79.197 1.427 1.235 3.496 2.866 4.978 2.811 0 0 .47.233.799.797.21.36.309.804.36 1.576.071 1.1.954.77 2.844.506 1.06-.148 2.24.233 2.24.233 3.153 2.408 4.265 6.326 3.928 12.937-3.89-3.288-4.69-4.728-5.76-4.675l-3.047.007c-2.695.023-2.48-1.21-3.989-3.626-1.741-2.343-4.995-6.444-8.625-6.458-.245-.001-.49.017-.738.054 0 0-1.572-1.084-2.97-2.799-4.951-7.373 9.055-13.917 12.317-18.487-.902-8.668.254-11.794-2.426-15.094-3.183.074-4.05-1.381-5.631-2.294-5.39 1.966-7.512 2.746-11.677.595-3.978.187-4.48 2.742-7.226 3.05-5.305.592-5.585-1.529-8.018-1.028-.923.19-1.336-.363-1.412-.718-.535-1.75-2.635-2.681-2.912-5.22-.157-1.441 1.521-2.772 2.649-3.067 5.583-6.004 2.266-6.692 5.19-9.554-1.673-1.853-.027-2.92-.265-4.163C5.14 28.5-.546 21.823.196 11.248z"
    fill="none"
    stroke="var(--color-primary)"
  />
</svg>
