<svg width="2141" height="1059" viewBox="0 0 2141 1059" fill="none" xmlns="http://www.w3.org/2000/svg">
<rect width="2140" height="1259" fill="url(#paint0_linear_19_3)"/>
<ellipse cx="1087.39" cy="463.153" rx="380.069" ry="99.4028" fill="#1F1F1F"/>
<path d="M1865.07 463.152C1865.07 602.014 1516.89 714.583 1087.39 714.583C657.892 714.583 309.713 602.014 309.713 463.152C309.713 324.291 657.892 211.722 1087.39 211.722C1516.89 211.722 1865.07 324.291 1865.07 463.152ZM582.427 463.152C582.427 553.318 808.508 626.412 1087.39 626.412C1366.28 626.412 1592.36 553.318 1592.36 463.152C1592.36 372.987 1366.28 299.893 1087.39 299.893C808.508 299.893 582.427 372.987 582.427 463.152Z" fill="#1F1F1F"/>
<path d="M2140.08 469C2140.08 701.512 1661.01 890 1070.04 890C479.074 890 0 701.512 0 469C0 236.488 479.074 48 1070.04 48C1661.01 48 2140.08 236.488 2140.08 469ZM222.475 469C222.475 653.17 601.943 802.469 1070.04 802.469C1538.14 802.469 1917.61 653.17 1917.61 469C1917.61 284.83 1538.14 135.531 1070.04 135.531C601.943 135.531 222.475 284.83 222.475 469Z" fill="#1F1F1F"/>
<path d="M527.48 188.247C568.013 262.491 589.415 255.336 655.37 236.962C671.709 212.801 680.922 213.561 707.841 202.742C651.346 191.175 645.148 145.247 657.937 124.889C693.009 215.964 759.001 148.089 789.234 195.564C879.516 180.055 918.107 173.957 986.578 191.584C1022.73 200.532 1031.3 230.983 1116.81 261.987C1261.42 314.418 1321.13 313.097 1356.23 309.721C1381.99 307.245 1395 304.694 1403.43 319.499C1487.7 328.542 1456.61 291.924 1573.88 315.728C1597.18 320.459 1614.09 330.202 1616.84 349.009C1618.77 362.189 1612.28 379.84 1602.59 400.4C1584.49 438.723 1590.78 455.974 1612.39 467.495C1627.9 475.762 1657.78 493.47 1634.67 531.923C1622.52 521.842 1613.38 511.159 1606.93 499.938C1606.48 496.94 1607.7 487.13 1607.7 487.13L1604.34 484.162L1604.23 478.166C1545.12 432.429 1599.12 380.821 1594.31 354.394C1587.18 331.925 1508.7 332.285 1450.99 350.739C1478.99 371.472 1494.71 374.009 1504.38 386.202C1507.82 390.054 1505.55 396.022 1507.09 403.945C1518.47 462.589 1544.11 496.229 1540.82 540.661C1549.67 547.459 1556.78 553.494 1561.63 601.116C1576.08 612.428 1586.25 586.097 1595.85 656.723C1600.03 722.407 1619.95 726.843 1633.26 775.134C1625.11 788.028 1595.63 794.538 1575.56 779.079C1583.4 749.86 1589.15 733.84 1585.31 717.178C1580.6 696.705 1559.3 684.552 1540.74 669.21C1538.7 667.528 1525.17 657.641 1521.22 649.286C1515.34 636.82 1487.81 635.715 1465.29 603.217C1463.67 600.872 1459.25 593.625 1456.98 587.61C1447.78 557.176 1414.63 547.067 1376.27 539.236C1364.2 536.764 1382.36 543.133 1324.94 596.269C1321.26 629.061 1339.25 647.103 1298.22 683.753C1296.6 685.203 1285 694.751 1283.17 696.219C1254.36 718.938 1256.64 739.945 1230.41 775.923C1193.57 777.016 1181.27 771.978 1174.52 763.376C1187.88 732.882 1234.9 722.665 1248.69 687.871C1260.96 656.925 1264.03 631.623 1256.5 596.27C1184.96 616.915 1101.48 559.151 1036.35 605.395C1012.63 622.993 1011.06 670.552 970.506 703.463C963.924 709.502 955.472 716.959 954.143 732.714C953.34 755.204 951.491 766.565 941.808 773.866C940.783 774.639 934.592 786.979 933.78 788.11C928.353 804.642 935.629 791.351 923.915 803.22C902.677 817.743 876.109 817.663 861.766 803.34C867.505 789.968 877.35 779.319 895.862 769.471C911.197 732.972 934.472 725.408 938.333 688.703C938.216 639.3 966.493 610.914 931.431 624.929C923.416 624.056 918.621 627.027 913.382 628.595C910.169 629.557 899.679 633.516 889.011 617.274C881.949 606.522 872.405 595.77 868.997 592.001C857.054 581.139 839.178 581.209 800.803 593.135C809.063 600.28 821.027 609.712 829.601 609.396C829.601 609.396 832.323 610.743 834.222 614.008C835.433 616.091 836.009 618.656 836.3 623.122C836.715 629.487 841.822 627.574 852.752 626.047C858.883 625.19 865.711 627.398 865.711 627.398C883.945 641.323 890.376 663.987 888.43 702.226C865.926 683.204 861.297 674.878 855.114 675.182L837.489 675.223C821.904 675.356 823.14 668.228 814.419 654.251C804.346 640.699 785.526 616.977 764.528 616.897C763.114 616.892 761.691 616.994 760.259 617.213C760.259 617.213 751.169 610.943 743.086 601.023C714.444 558.377 795.454 520.527 814.322 494.094C809.108 443.955 815.791 425.877 800.294 406.79C781.879 407.214 776.868 398.799 767.721 393.52C736.552 404.892 724.273 409.401 700.181 396.959C677.176 398.041 674.267 412.821 658.386 414.597C627.705 418.027 626.085 405.76 612.012 408.655C606.673 409.753 604.285 406.555 603.842 404.501C600.753 394.383 588.603 388.996 587.001 374.316C586.091 365.974 595.799 358.278 602.321 356.571C634.614 321.842 615.429 317.867 632.346 301.313C622.667 290.592 632.187 284.423 630.808 277.232C556.079 288.034 523.185 249.417 527.477 188.251L527.48 188.247Z" fill="url(#paint1_linear_19_3)"/>
<defs>
<linearGradient id="paint0_linear_19_3" x1="1070" y1="0" x2="1070" y2="1059" gradientUnits="userSpaceOnUse">
<stop stop-color="#333333"/>
<stop offset="1" stop-color="#0D0D0D"/>
</linearGradient>
<linearGradient id="paint1_linear_19_3" x1="1085.12" y1="124.889" x2="1085.12" y2="814.097" gradientUnits="userSpaceOnUse">
<stop stop-color="#401212"/>
<stop offset="1" stop-color="#1E0909"/>
</linearGradient>
</defs>
</svg>
