<svg width="360" height="369" viewBox="-20 0 380 390" fill="none" xmlns="http://www.w3.org/2000/svg">
<path fill-rule="evenodd" clip-rule="evenodd" d="M325 52H35C27.8203 52 22 57.8203 22 65V344C22 351.18 27.8203 357 35 357H325C332.18 357 338 351.18 338 344V65C338 57.8203 332.18 52 325 52ZM35 30C15.67 30 0 45.67 0 65V344C0 363.33 15.67 379 35 379H325C344.33 379 360 363.33 360 344V65C360 45.67 344.33 30 325 30H35Z" fill="#DADADA"/>
<path d="M36 134C36 128.477 40.4772 124 46 124H86C91.5228 124 96 128.477 96 134V174C96 179.523 91.5228 184 86 184H46C40.4772 184 36 179.523 36 174V134Z" fill="#D9D9D9"/>
<path d="M56 10C56 4.47715 60.4772 0 66 0C71.5228 0 76 4.47715 76 10V50C76 55.5228 71.5228 60 66 60C60.4772 60 56 55.5228 56 50V10Z" fill="#D9D9D9"/>
<path d="M132 10C132 4.47715 136.477 0 142 0C147.523 0 152 4.47715 152 10V50C152 55.5228 147.523 60 142 60C136.477 60 132 55.5228 132 50V10Z" fill="#D9D9D9"/>
<path d="M208 10C208 4.47715 212.477 0 218 0C223.523 0 228 4.47715 228 10V50C228 55.5228 223.523 60 218 60C212.477 60 208 55.5228 208 50V10Z" fill="#D9D9D9"/>
<path d="M284 10C284 4.47715 288.477 0 294 0C299.523 0 304 4.47715 304 10V50C304 55.5228 299.523 60 294 60C288.477 60 284 55.5228 284 50V10Z" fill="#D9D9D9"/>
<path d="M112 134C112 128.477 116.477 124 122 124H162C167.523 124 172 128.477 172 134V174C172 179.523 167.523 184 162 184H122C116.477 184 112 179.523 112 174V134Z" fill="#D9D9D9"/>
<path d="M188 134C188 128.477 192.477 124 198 124H238C243.523 124 248 128.477 248 134V174C248 179.523 243.523 184 238 184H198C192.477 184 188 179.523 188 174V134Z" fill="#D9D9D9"/>
<path d="M264 134C264 128.477 268.477 124 274 124H314C319.523 124 324 128.477 324 134V174C324 179.523 319.523 184 314 184H274C268.477 184 264 179.523 264 174V134Z" fill="#D9D9D9"/>
<path d="M36 213C36 207.477 40.4772 203 46 203H86C91.5228 203 96 207.477 96 213V253C96 258.523 91.5228 263 86 263H46C40.4772 263 36 258.523 36 253V213Z" fill="#D9D9D9"/>
<path d="M112 213C112 207.477 116.477 203 122 203H162C167.523 203 172 207.477 172 213V253C172 258.523 167.523 263 162 263H122C116.477 263 112 258.523 112 253V213Z" fill="#D9D9D9"/>
<path d="M188 213C188 207.477 192.477 203 198 203H238C243.523 203 248 207.477 248 213V253C248 258.523 243.523 263 238 263H198C192.477 263 188 258.523 188 253V213Z" fill="#D9D9D9"/>
<path d="M264 213C264 207.477 268.477 203 274 203H314C319.523 203 324 207.477 324 213V253C324 258.523 319.523 263 314 263H274C268.477 263 264 258.523 264 253V213Z" fill="#D9D9D9"/>
<path d="M36 292C36 286.477 40.4772 282 46 282H86C91.5228 282 96 286.477 96 292V332C96 337.523 91.5228 342 86 342H46C40.4772 342 36 337.523 36 332V292Z" fill="#D9D9D9"/>
<path d="M112 292C112 286.477 116.477 282 122 282H162C167.523 282 172 286.477 172 292V332C172 337.523 167.523 342 162 342H122C116.477 342 112 337.523 112 332V292Z" fill="#D9D9D9"/>
<path d="M188 292C188 286.477 192.477 282 198 282H238C243.523 282 248 286.477 248 292V332C248 337.523 243.523 342 238 342H198C192.477 342 188 337.523 188 332V292Z" fill="#D9D9D9"/>
<path d="M21 46H343V105H21V46Z" fill="#D9D9D9"/>
</svg>
