<svg width="450" height="450" viewBox="0 0 450 450" fill="none" xmlns="http://www.w3.org/2000/svg">
<path fill-rule="evenodd" clip-rule="evenodd" d="M225.781 25.8762C195.761 25.8762 171.138 53.3942 171.138 87.7145C171.138 104.872 177.312 123.28 187.299 137.379C197.301 151.499 210.939 161.058 225.781 161.058C240.623 161.058 254.261 151.499 264.263 137.379C274.25 123.28 280.424 104.872 280.424 87.7145C280.424 53.3942 255.801 25.8762 225.781 25.8762ZM168.262 87.7145C168.262 52.1416 193.856 23 225.781 23C257.706 23 283.3 52.1416 283.3 87.7145C283.3 105.503 276.92 124.486 266.609 139.041C256.314 153.576 241.912 163.934 225.781 163.934C209.65 163.934 195.248 153.576 184.953 139.041C174.642 124.486 168.262 105.503 168.262 87.7145ZM73.291 90.6478C52.0262 90.6478 34.466 110.471 34.466 135.349C34.466 147.78 38.873 161.127 46.0002 171.346C53.1441 181.588 62.8275 188.439 73.291 188.439C83.7545 188.439 93.438 181.588 100.582 171.346C107.709 161.127 112.116 147.78 112.116 135.349C112.116 110.471 94.5559 90.6478 73.291 90.6478ZM31.5901 135.349C31.5901 109.263 50.0826 87.7716 73.291 87.7716C96.4994 87.7716 114.992 109.263 114.992 135.349C114.992 148.4 110.386 162.316 102.941 172.991C95.5122 183.642 85.0642 191.315 73.291 191.315C61.5179 191.315 51.0699 183.642 43.6414 172.991C36.1962 162.316 31.5901 148.4 31.5901 135.349ZM166.082 185.233L211.053 274.5L219.984 208.998L199 188.992L254.5 188.439L234.337 208.146L243.385 274.5L287.778 186.331L288.42 186.669L288.779 185.643L289.067 185.744C293.466 187.283 298.329 188.985 302.147 192.273C306.091 195.67 308.817 200.651 309.181 208.505L309.184 208.571L299.181 411L225.781 428L153.882 411L147.76 287.754L147.759 287.745C146.134 263.647 144.507 239.506 144.507 208.572V208.539L144.509 208.505C144.873 200.651 147.599 195.67 151.543 192.273C155.361 188.985 160.224 187.283 164.623 185.744L166.082 185.233ZM289.63 188.992L243.657 276.496L234.337 208.146L245.754 194.191H208.684L220.101 208.146L210.781 276.496L164.691 188.768C160.52 190.239 156.54 191.766 153.42 194.452C150.152 197.267 147.728 201.457 147.385 208.576L150.63 287.581L150.631 287.59C152.23 311.313 153.832 335.079 153.882 365.325H299.181L306.305 208.573C305.962 201.456 303.538 197.267 300.27 194.452C297.308 191.901 293.57 190.396 289.63 188.992ZM25.9261 214.324H125.428L132.757 408.124H48.2316L9 241.806L9.02666 241.516C9.63129 234.944 10.515 229.803 12.9354 225.483C15.3827 221.116 19.3005 217.754 25.6152 214.485L25.9261 214.324ZM26.6284 217.201C20.7899 220.266 17.4823 223.252 15.4443 226.889C13.375 230.582 12.5172 235.108 11.9174 241.491L50.3356 362.449H129.738L122.688 217.201H26.6284ZM326.572 214.324H426.074L426.385 214.485C432.699 217.754 436.617 221.116 439.065 225.483C441.485 229.803 442.369 234.944 442.973 241.516L443 241.806L403.768 408.124H319.243L326.572 214.324ZM329.312 217.201L322.262 362.449H401.664L440.083 241.491C439.483 235.108 438.625 230.582 436.556 226.889C434.518 223.252 431.21 220.266 425.372 217.201H329.312Z" fill="#D9D9D9"/>
<path d="M34.466 135.349C34.466 110.471 52.0262 90.6478 73.291 90.6478C94.5559 90.6478 112.116 110.471 112.116 135.349C112.116 147.78 107.709 161.127 100.582 171.346C93.438 181.588 83.7545 188.439 73.291 188.439C62.8275 188.439 53.1441 181.588 46.0002 171.346C38.873 161.127 34.466 147.78 34.466 135.349Z" fill="#D9D9D9"/>
<path d="M15.4443 226.889C17.4823 223.252 20.7899 220.266 26.6284 217.201H122.688L129.738 362.449H50.3356L11.9174 241.491C12.5172 235.108 13.375 230.582 15.4443 226.889Z" fill="#D9D9D9"/>
<path d="M208.684 194.191H245.754L234.337 208.146L243.657 276.496L289.63 188.992C293.57 190.396 297.308 191.901 300.27 194.452C303.538 197.267 305.962 201.456 306.305 208.573L299.181 365.325H153.882C153.832 335.079 152.23 311.313 150.631 287.59L150.63 287.581L147.385 208.576C147.728 201.457 150.152 197.267 153.42 194.452C156.54 191.766 160.52 190.239 164.691 188.768L210.781 276.496L220.101 208.146L208.684 194.191Z" fill="#D9D9D9"/>
<path d="M171.138 87.7145C171.138 53.3942 195.761 25.8762 225.781 25.8762C255.801 25.8762 280.424 53.3942 280.424 87.7145C280.424 104.872 274.25 123.28 264.263 137.379C254.261 151.499 240.623 161.058 225.781 161.058C210.939 161.058 197.301 151.499 187.299 137.379C177.312 123.28 171.138 104.872 171.138 87.7145Z" fill="#D9D9D9"/>
<path d="M322.262 362.449L329.312 217.201H425.372C431.21 220.266 434.518 223.252 436.556 226.889C438.625 230.582 439.483 235.108 440.083 241.491L401.664 362.449H322.262Z" fill="#D9D9D9"/>
<path d="M340.846 135.349C340.846 110.471 358.406 90.6478 379.671 90.6478C400.935 90.6478 418.496 110.471 418.496 135.349C418.496 147.78 414.089 161.127 406.961 171.346C399.818 181.588 390.134 188.439 379.671 188.439C369.207 188.439 359.524 181.588 352.38 171.346C345.253 161.127 340.846 147.78 340.846 135.349Z" fill="#D9D9D9"/>
</svg>
