<svg width="280" height="350" viewBox="-40 0 360 450" fill="none" xmlns="http://www.w3.org/2000/svg">
<path d="M68.6221 109.983H233.315C231.857 92.8271 224.995 79.7889 209.383 75.5858C209.04 75.5 208.611 75.3285 208.268 75.2427C197.975 72.3263 190.426 68.8094 190.426 57.4867V39.8165C190.426 17.9432 172.842 0.10144 150.969 0.10144C129.095 0.10144 111.511 17.8574 111.511 39.8165V57.4867C111.511 68.7236 103.962 72.2405 93.6692 75.1569C93.326 75.2427 92.8972 75.5 92.4683 75.5858C76.8567 79.7889 70.2518 92.8271 68.6221 109.983ZM150.969 27.9792C157.488 27.9792 162.806 33.2974 162.806 39.8165C162.806 46.4214 157.488 51.6538 150.969 51.6538C144.45 51.6538 139.131 46.3356 139.131 39.8165C139.131 33.2974 144.45 27.9792 150.969 27.9792Z" fill="#D9D9D9"/>
<path d="M278.434 26.7783H215.302V39.2161C215.302 48.3085 222.765 55.085 231.6 55.085H263.509C269.256 55.085 273.888 59.9743 274.146 65.8072L274.231 346.472C273.974 351.962 269.685 356.422 264.367 356.851L37.5706 356.937C32.2524 356.508 28.0493 352.047 27.7062 346.558L27.6204 65.8072C27.8777 59.9743 32.6813 55.085 38.3426 55.085H70.3377C79.1728 55.085 86.6355 48.3085 86.6355 39.2161V26.7783H23.5031C10.5507 26.7783 0 38.0152 0 51.3107V360.454C0 373.749 10.5507 384.471 23.5031 384.471H150.969H278.434C291.387 384.471 301.938 373.749 301.938 360.454V51.3107C301.938 38.0152 291.387 26.7783 278.434 26.7783Z" fill="#D9D9D9"/>
<path d="M150.969 137.432H54.8977V151.156H150.969V137.432Z" fill="#D9D9D9"/>
<path d="M192.142 219.778H54.8977V233.503H192.142V219.778Z" fill="#D9D9D9"/>
<path d="M165.551 302.125H54.8977V315.849H165.551V302.125Z" fill="#D9D9D9"/>
<path d="M205.866 260.951H54.8977V274.676H205.866V260.951Z" fill="#D9D9D9"/>
<path d="M233.315 178.605H54.8977V192.329H233.315V178.605Z" fill="#D9D9D9"/>
</svg>
